<mxfile host="app.diagrams.net" modified="2023-10-18T14:02:19.302Z" agent="Mozilla/5.0 (Macintosh; Intel Mac OS X 10_15_7) AppleWebKit/537.36 (KHTML, like Gecko) Chrome/117.0.0.0 Safari/537.36" etag="C2tYgXaa5tRfhvV6VukD" version="22.0.4" type="device">
  <diagram name="Page-1" id="nYqAakx0Y22jKsaiM2bd">
    <mxGraphModel dx="2074" dy="2267" grid="1" gridSize="10" guides="1" tooltips="1" connect="1" arrows="1" fold="1" page="1" pageScale="1" pageWidth="850" pageHeight="1100" math="0" shadow="0">
      <root>
        <mxCell id="0" />
        <mxCell id="1" parent="0" />
        <mxCell id="sWI6t_ZAFfcBNHLe3j9c-2" value="&lt;b&gt;Google &lt;/b&gt;Cloud Platform" style="fillColor=#F6F6F6;strokeColor=none;shadow=0;gradientColor=none;fontSize=14;align=left;spacing=10;fontColor=#717171;9E9E9E;verticalAlign=top;spacingTop=-4;fontStyle=0;spacingLeft=40;html=1;whiteSpace=wrap;container=0;" vertex="1" parent="1">
          <mxGeometry x="40" y="-120" width="780" height="600" as="geometry" />
        </mxCell>
        <mxCell id="sWI6t_ZAFfcBNHLe3j9c-37" value="" style="edgeStyle=orthogonalEdgeStyle;fontSize=12;html=1;endArrow=blockThin;endFill=1;rounded=0;strokeWidth=2;endSize=4;startSize=4;dashed=0;strokeColor=#4284F3;exitX=1;exitY=0.25;exitDx=0;exitDy=0;entryX=0;entryY=0.25;entryDx=0;entryDy=0;startArrow=classic;startFill=1;" edge="1" parent="1">
          <mxGeometry width="100" relative="1" as="geometry">
            <mxPoint x="385" y="117" as="sourcePoint" />
            <mxPoint x="483" y="117" as="targetPoint" />
          </mxGeometry>
        </mxCell>
        <mxCell id="sWI6t_ZAFfcBNHLe3j9c-3" value="" style="shape=mxgraph.gcp2.google_cloud_platform;fillColor=#F6F6F6;strokeColor=none;shadow=0;gradientColor=none;" vertex="1" parent="1">
          <mxGeometry x="60" y="-110" width="23" height="20" as="geometry">
            <mxPoint x="20" y="10" as="offset" />
          </mxGeometry>
        </mxCell>
        <mxCell id="sWI6t_ZAFfcBNHLe3j9c-4" value="Folder: crux-ocm" style="sketch=0;points=[[0,0,0],[0.25,0,0],[0.5,0,0],[0.75,0,0],[1,0,0],[1,0.25,0],[1,0.5,0],[1,0.75,0],[1,1,0],[0.75,1,0],[0.5,1,0],[0.25,1,0],[0,1,0],[0,0.75,0],[0,0.5,0],[0,0.25,0]];rounded=1;absoluteArcSize=1;arcSize=2;html=1;strokeColor=none;gradientColor=none;shadow=0;dashed=0;fontSize=12;fontColor=#9E9E9E;align=left;verticalAlign=top;spacing=10;spacingTop=-4;whiteSpace=wrap;fillColor=#F3E5F5;" vertex="1" parent="1">
          <mxGeometry x="50.25974025974026" y="-80" width="759.2207792207793" height="540" as="geometry" />
        </mxCell>
        <mxCell id="sWI6t_ZAFfcBNHLe3j9c-5" value="Folder: gcp" style="sketch=0;points=[[0,0,0],[0.25,0,0],[0.5,0,0],[0.75,0,0],[1,0,0],[1,0.25,0],[1,0.5,0],[1,0.75,0],[1,1,0],[0.75,1,0],[0.5,1,0],[0.25,1,0],[0,1,0],[0,0.75,0],[0,0.5,0],[0,0.25,0]];rounded=1;absoluteArcSize=1;arcSize=2;html=1;strokeColor=none;gradientColor=none;shadow=0;dashed=0;fontSize=12;fontColor=#9E9E9E;align=left;verticalAlign=top;spacing=10;spacingTop=-4;whiteSpace=wrap;fillColor=#F1F8E9;" vertex="1" parent="1">
          <mxGeometry x="60.519999999999996" y="-30" width="359.48" height="480" as="geometry" />
        </mxCell>
        <mxCell id="sWI6t_ZAFfcBNHLe3j9c-10" value="Folder: on-prem" style="sketch=0;points=[[0,0,0],[0.25,0,0],[0.5,0,0],[0.75,0,0],[1,0,0],[1,0.25,0],[1,0.5,0],[1,0.75,0],[1,1,0],[0.75,1,0],[0.5,1,0],[0.25,1,0],[0,1,0],[0,0.75,0],[0,0.5,0],[0,0.25,0]];rounded=1;absoluteArcSize=1;arcSize=2;html=1;strokeColor=none;gradientColor=none;shadow=0;dashed=0;fontSize=12;fontColor=#9E9E9E;align=left;verticalAlign=top;spacing=10;spacingTop=-4;whiteSpace=wrap;fillColor=#F1F8E9;" vertex="1" parent="1">
          <mxGeometry x="429.87" y="-30" width="370.13" height="480" as="geometry" />
        </mxCell>
        <mxCell id="sWI6t_ZAFfcBNHLe3j9c-11" value="Folder: crux-poc" style="fillColor=#4DA1F5;strokeColor=none;shadow=1;gradientColor=none;fontSize=14;align=left;spacingLeft=50;fontColor=#ffffff;whiteSpace=wrap;html=1;" vertex="1" parent="1">
          <mxGeometry x="60.52" y="-70" width="190" height="20" as="geometry" />
        </mxCell>
        <mxCell id="sWI6t_ZAFfcBNHLe3j9c-13" value="Folder: on-prem" style="fillColor=#4DA1F5;strokeColor=none;shadow=1;gradientColor=none;fontSize=14;align=left;spacingLeft=50;fontColor=#ffffff;whiteSpace=wrap;html=1;" vertex="1" parent="1">
          <mxGeometry x="440" y="-20" width="190" height="20" as="geometry" />
        </mxCell>
        <mxCell id="sWI6t_ZAFfcBNHLe3j9c-12" value="Folder: gcp" style="fillColor=#4DA1F5;strokeColor=none;shadow=1;gradientColor=none;fontSize=14;align=left;spacingLeft=50;fontColor=#ffffff;whiteSpace=wrap;html=1;" vertex="1" parent="1">
          <mxGeometry x="70.52000000000001" y="-20" width="190" height="20" as="geometry" />
        </mxCell>
        <mxCell id="sWI6t_ZAFfcBNHLe3j9c-14" value="" style="sketch=0;points=[[0,0,0],[0.25,0,0],[0.5,0,0],[0.75,0,0],[1,0,0],[1,0.25,0],[1,0.5,0],[1,0.75,0],[1,1,0],[0.75,1,0],[0.5,1,0],[0.25,1,0],[0,1,0],[0,0.75,0],[0,0.5,0],[0,0.25,0]];rounded=1;absoluteArcSize=1;arcSize=2;html=1;strokeColor=none;gradientColor=none;shadow=0;dashed=0;fontSize=12;fontColor=#9E9E9E;align=left;verticalAlign=top;spacing=10;spacingTop=-4;whiteSpace=wrap;fillColor=#FFEBEE;" vertex="1" parent="1">
          <mxGeometry x="70.52" y="20" width="339.48" height="130" as="geometry" />
        </mxCell>
        <mxCell id="sWI6t_ZAFfcBNHLe3j9c-15" value="" style="sketch=0;points=[[0,0,0],[0.25,0,0],[0.5,0,0],[0.75,0,0],[1,0,0],[1,0.25,0],[1,0.5,0],[1,0.75,0],[1,1,0],[0.75,1,0],[0.5,1,0],[0.25,1,0],[0,1,0],[0,0.75,0],[0,0.5,0],[0,0.25,0]];rounded=1;absoluteArcSize=1;arcSize=2;html=1;strokeColor=none;gradientColor=none;shadow=0;dashed=0;fontSize=12;fontColor=#9E9E9E;align=left;verticalAlign=top;spacing=10;spacingTop=-4;whiteSpace=wrap;fillColor=#FFEBEE;" vertex="1" parent="1">
          <mxGeometry x="450" y="20" width="339.48" height="130" as="geometry" />
        </mxCell>
        <mxCell id="sWI6t_ZAFfcBNHLe3j9c-17" value="Project: net-gcp" style="fillColor=#4DA1F5;strokeColor=none;shadow=1;gradientColor=none;fontSize=14;align=left;spacingLeft=50;fontColor=#ffffff;whiteSpace=wrap;html=1;" vertex="1" parent="1">
          <mxGeometry x="80.52000000000001" y="30" width="190" height="20" as="geometry" />
        </mxCell>
        <mxCell id="sWI6t_ZAFfcBNHLe3j9c-18" value="Project: net-on-prem" style="fillColor=#4DA1F5;strokeColor=none;shadow=1;gradientColor=none;fontSize=14;align=left;spacingLeft=50;fontColor=#ffffff;whiteSpace=wrap;html=1;" vertex="1" parent="1">
          <mxGeometry x="460" y="30" width="190" height="20" as="geometry" />
        </mxCell>
        <mxCell id="sWI6t_ZAFfcBNHLe3j9c-19" value="" style="sketch=0;points=[[0,0,0],[0.25,0,0],[0.5,0,0],[0.75,0,0],[1,0,0],[1,0.25,0],[1,0.5,0],[1,0.75,0],[1,1,0],[0.75,1,0],[0.5,1,0],[0.25,1,0],[0,1,0],[0,0.75,0],[0,0.5,0],[0,0.25,0]];rounded=1;absoluteArcSize=1;arcSize=2;html=1;strokeColor=none;gradientColor=none;shadow=0;dashed=0;fontSize=12;fontColor=#9E9E9E;align=left;verticalAlign=top;spacing=10;spacingTop=-4;whiteSpace=wrap;fillColor=#FFF8E1;" vertex="1" parent="1">
          <mxGeometry x="70.52" y="175" width="339.48" height="235" as="geometry" />
        </mxCell>
        <mxCell id="sWI6t_ZAFfcBNHLe3j9c-20" value="" style="sketch=0;points=[[0,0,0],[0.25,0,0],[0.5,0,0],[0.75,0,0],[1,0,0],[1,0.25,0],[1,0.5,0],[1,0.75,0],[1,1,0],[0.75,1,0],[0.5,1,0],[0.25,1,0],[0,1,0],[0,0.75,0],[0,0.5,0],[0,0.25,0]];rounded=1;absoluteArcSize=1;arcSize=2;html=1;strokeColor=none;gradientColor=none;shadow=0;dashed=0;fontSize=12;fontColor=#9E9E9E;align=left;verticalAlign=top;spacing=10;spacingTop=-4;whiteSpace=wrap;fillColor=#FFF8E1;" vertex="1" parent="1">
          <mxGeometry x="450" y="175" width="339.48" height="235" as="geometry" />
        </mxCell>
        <mxCell id="sWI6t_ZAFfcBNHLe3j9c-21" value="Project: svc-gcp" style="fillColor=#4DA1F5;strokeColor=none;shadow=1;gradientColor=none;fontSize=14;align=left;spacingLeft=50;fontColor=#ffffff;whiteSpace=wrap;html=1;" vertex="1" parent="1">
          <mxGeometry x="80.52000000000001" y="190" width="190" height="20" as="geometry" />
        </mxCell>
        <mxCell id="sWI6t_ZAFfcBNHLe3j9c-22" value="Project: svc-on-prem" style="fillColor=#4DA1F5;strokeColor=none;shadow=1;gradientColor=none;fontSize=14;align=left;spacingLeft=50;fontColor=#ffffff;whiteSpace=wrap;html=1;" vertex="1" parent="1">
          <mxGeometry x="460" y="190" width="190" height="20" as="geometry" />
        </mxCell>
        <mxCell id="sWI6t_ZAFfcBNHLe3j9c-23" value="Shared VPC" style="editableCssRules=.*;html=1;shape=image;verticalLabelPosition=bottom;labelBackgroundColor=#ffffff;verticalAlign=top;aspect=fixed;imageAspect=0;image=data:image/svg+xml,PHN2ZyB4bWxucz0iaHR0cDovL3d3dy53My5vcmcvMjAwMC9zdmciIHhtbG5zOnY9Imh0dHBzOi8vdmVjdGEuaW8vbmFubyIgd2lkdGg9IjIwIiBoZWlnaHQ9IjIwIiB2aWV3Qm94PSIwIDAgMjAgMjAiPiYjeGE7CTxzdHlsZSB0eXBlPSJ0ZXh0L2NzcyI+JiN4YTsJLnN0MHtmaWxsOiM0Mjg1ZjQ7fSYjeGE7CS5zdDF7ZmlsbDojNjY5ZGY2O30mI3hhOwkuc3Qye2ZpbGw6I2FlY2JmYTt9JiN4YTsJPC9zdHlsZT4mI3hhOwk8cGF0aCBjbGFzcz0ic3QyIiBkPSJNMTQgMGg2djZoLTZ6Ii8+JiN4YTsJPHBhdGggY2xhc3M9InN0MSIgZD0iTTE3IDBoM3Y2aC0zeiIvPiYjeGE7CTxwYXRoIGNsYXNzPSJzdDIiIGQ9Ik0xNCAxNGg2djZoLTZ6Ii8+JiN4YTsJPHBhdGggY2xhc3M9InN0MSIgZD0iTTE3IDE0aDN2NmgtM3oiLz4mI3hhOwk8cGF0aCBjbGFzcz0ic3QyIiBkPSJNMCAwaDZ2NkgweiIvPiYjeGE7CTxwYXRoIGNsYXNzPSJzdDEiIGQ9Ik0zIDBoM3Y2SDN6Ii8+JiN4YTsJPHBhdGggY2xhc3M9InN0MiIgZD0iTTAgMTRoNnY2SDB6Ii8+JiN4YTsJPGcgY2xhc3M9InN0MSI+JiN4YTsJCTxwYXRoIGQ9Ik0zIDE0aDN2Nkgzek02IDJoOHYySDZ6Ii8+JiN4YTsJCTxwYXRoIGQ9Ik02IDE2aDh2Mkg2ek0xNiA2aDJ2OGgtMnpNMiA2aDJ2OEgyeiIvPiYjeGE7CTwvZz4mI3hhOwk8cGF0aCBjbGFzcz0ic3QwIiBkPSJNMiA2aDJ2Mkgyem0xNCAwaDJ2MmgtMnpNNiAyaDJ2Mkg2em0wIDE0aDJ2Mkg2eiIvPiYjeGE7PC9zdmc+;" vertex="1" parent="1">
          <mxGeometry x="110" y="80" width="40" height="40" as="geometry" />
        </mxCell>
        <mxCell id="sWI6t_ZAFfcBNHLe3j9c-24" value="Shared VPC" style="editableCssRules=.*;html=1;shape=image;verticalLabelPosition=bottom;labelBackgroundColor=#ffffff;verticalAlign=top;aspect=fixed;imageAspect=0;image=data:image/svg+xml,PHN2ZyB4bWxucz0iaHR0cDovL3d3dy53My5vcmcvMjAwMC9zdmciIHhtbG5zOnY9Imh0dHBzOi8vdmVjdGEuaW8vbmFubyIgd2lkdGg9IjIwIiBoZWlnaHQ9IjIwIiB2aWV3Qm94PSIwIDAgMjAgMjAiPiYjeGE7CTxzdHlsZSB0eXBlPSJ0ZXh0L2NzcyI+JiN4YTsJLnN0MHtmaWxsOiM0Mjg1ZjQ7fSYjeGE7CS5zdDF7ZmlsbDojNjY5ZGY2O30mI3hhOwkuc3Qye2ZpbGw6I2FlY2JmYTt9JiN4YTsJPC9zdHlsZT4mI3hhOwk8cGF0aCBjbGFzcz0ic3QyIiBkPSJNMTQgMGg2djZoLTZ6Ii8+JiN4YTsJPHBhdGggY2xhc3M9InN0MSIgZD0iTTE3IDBoM3Y2aC0zeiIvPiYjeGE7CTxwYXRoIGNsYXNzPSJzdDIiIGQ9Ik0xNCAxNGg2djZoLTZ6Ii8+JiN4YTsJPHBhdGggY2xhc3M9InN0MSIgZD0iTTE3IDE0aDN2NmgtM3oiLz4mI3hhOwk8cGF0aCBjbGFzcz0ic3QyIiBkPSJNMCAwaDZ2NkgweiIvPiYjeGE7CTxwYXRoIGNsYXNzPSJzdDEiIGQ9Ik0zIDBoM3Y2SDN6Ii8+JiN4YTsJPHBhdGggY2xhc3M9InN0MiIgZD0iTTAgMTRoNnY2SDB6Ii8+JiN4YTsJPGcgY2xhc3M9InN0MSI+JiN4YTsJCTxwYXRoIGQ9Ik0zIDE0aDN2Nkgzek02IDJoOHYySDZ6Ii8+JiN4YTsJCTxwYXRoIGQ9Ik02IDE2aDh2Mkg2ek0xNiA2aDJ2OGgtMnpNMiA2aDJ2OEgyeiIvPiYjeGE7CTwvZz4mI3hhOwk8cGF0aCBjbGFzcz0ic3QwIiBkPSJNMiA2aDJ2Mkgyem0xNCAwaDJ2MmgtMnpNNiAyaDJ2Mkg2em0wIDE0aDJ2Mkg2eiIvPiYjeGE7PC9zdmc+;" vertex="1" parent="1">
          <mxGeometry x="730" y="80" width="40" height="40" as="geometry" />
        </mxCell>
        <mxCell id="sWI6t_ZAFfcBNHLe3j9c-27" value="" style="rounded=1;arcSize=9;align=left;spacingLeft=5;strokeColor=#4C9AFF;html=1;strokeWidth=2;fontSize=12;fillColor=none;" vertex="1" parent="1">
          <mxGeometry x="95.25999999999999" y="285" width="674.74" height="95" as="geometry" />
        </mxCell>
        <mxCell id="sWI6t_ZAFfcBNHLe3j9c-28" value="Anthos Fleet" style="sketch=0;html=1;verticalAlign=top;labelPosition=center;verticalLabelPosition=bottom;align=center;spacingTop=-6;fontSize=11;fontStyle=1;fontColor=#999999;shape=image;aspect=fixed;imageAspect=0;image=data:image/svg+xml,PHN2ZyB4bWxucz0iaHR0cDovL3d3dy53My5vcmcvMjAwMC9zdmciIGlkPSJzdmc1MzkzNyIgdmVyc2lvbj0iMS4xIiB2aWV3Qm94PSIwIDAgMTUxLjQ4MDQ3IDEzMS4zMDQ2OSIgaGVpZ2h0PSIxMzEuMzA0NjltbSIgd2lkdGg9IjE1MS40ODA0N21tIj4mI3hhOyAgJiN4YTsgIDxkZWZzIGlkPSJkZWZzNTM5MzQiLz4mI3hhOyAgPGcgdHJhbnNmb3JtPSJ0cmFuc2xhdGUoLTMwLjc2NzU3OCwtODQuMDg3ODkxKSIgaWQ9ImxheWVyMSI+JiN4YTsgICAgPHBhdGggaWQ9InBhdGg1NDA3OCIgZD0ibSAxMDYuODY1MjMsODQuMDg3ODkxIC03Ni4wOTc2NTIsMTMxLjMwNDY4OSAxMC40NDkyMTksLTAuMDMxMiAxNDEuMDMxMjUzLC0wLjQyOTY5IHogbSAtMC4wMzEyLDIzLjk4NDM3OSA1NC42ODc1LDk0LjkyMTg3IC0xMDkuODk0NTI3LDAuMzM1OTQgeiIgc3R5bGU9ImNvbG9yOiMwMDAwMDA7ZmlsbDojZmViYzAwOy1pbmtzY2FwZS1zdHJva2U6bm9uZSIvPiYjeGE7ICAgIDxwYXRoIGlkPSJwYXRoNTQwODAiIGQ9Im0gMTA2Ljg1NzQyLDEzNC44Mzc4OSAtNjkuOTE0MDYxLDcwLjI5MTAyIDguNTA3ODEzLDguNDYyODkgNjEuMzkwNjI4LC02MS43MjI2NiA2MC43ODEyNSw2MS4zMTgzNiA4LjUyMzQzLC04LjQ0NzI3IHoiIHN0eWxlPSJjb2xvcjojMDAwMDAwO2ZpbGw6I2VmNDczNjstaW5rc2NhcGUtc3Ryb2tlOm5vbmUiLz4mI3hhOyAgICA8cGF0aCBpZD0icGF0aDg3NTk4IiBkPSJtIDE3MS44NjcxOSwyMDIuOTYyODkgLTEzMC42ODc1MDMsMC4zOTg0NCAwLjAzNzExLDEyIDEzMC42ODc1MDMsLTAuMzk4NDQgeiIgc3R5bGU9ImNvbG9yOiMwMDAwMDA7ZmlsbDojMDA4MDAwOy1pbmtzY2FwZS1zdHJva2U6bm9uZSIvPiYjeGE7ICAgIDxwYXRoIGlkPSJwYXRoNzk2NzkiIGQ9Im0gMTA2Ljg0NTcsMTczLjIxMjg5IC02OS44OTY0OTQsMzEuNTA2NzYgLTYuMTgxNjI4LDEwLjY3MjkzIDExLjY4ODY4MSwtMC4wMzEyIDY0LjM5OTIxMSwtMjguOTkyMTkgNjMuNzMxMzgsMjguNTkyNTEgMTEuNjYxMiwtMC4wMyAtNi4xMDE1NywtMTAuNTkzODcgeiIgc3R5bGU9ImNvbG9yOiMwMDAwMDA7b3BhY2l0eToxO2ZpbGw6IzNjODRmODstaW5rc2NhcGUtc3Ryb2tlOm5vbmUiLz4mI3hhOyAgPC9nPiYjeGE7PC9zdmc+;" vertex="1" parent="1">
          <mxGeometry x="103.34" y="230" width="46.66" height="40" as="geometry" />
        </mxCell>
        <mxCell id="sWI6t_ZAFfcBNHLe3j9c-29" value="svc-demo" style="editableCssRules=.*;html=1;shape=image;verticalLabelPosition=bottom;labelBackgroundColor=#ffffff;verticalAlign=top;aspect=fixed;imageAspect=0;image=data:image/svg+xml,PHN2ZyB4bWxucz0iaHR0cDovL3d3dy53My5vcmcvMjAwMC9zdmciIHhtbG5zOnY9Imh0dHBzOi8vdmVjdGEuaW8vbmFubyIgd2lkdGg9IjMyOS45MjU5OTcyMzE3OTM4IiBoZWlnaHQ9IjM3OC4yODQ5OTAzMTEyNzg4IiB2aWV3Qm94PSIwIDAgODcuMjkyOTk5MjY3NTc4MTIgMTAwLjA4Nzk5NzQzNjUyMzQ0Ij4mI3hhOzxzdHlsZSB0eXBlPSJ0ZXh0L2NzcyI+JiN4YTsJLnN0MHtmaWxsOiNhZWNiZmE7fSYjeGE7CS5zdDF7ZmlsbDojNjY5ZGY2O30mI3hhOwkuc3Qye2ZpbGw6IzQyODVmNDt9JiN4YTs8L3N0eWxlPiYjeGE7CTxwYXRoIGNsYXNzPSJzdDAiIGQ9Ik00My43NTEgMEwwIDI1LjQ2NXYyLjU4OCA0Ni45Mmw0My43NTIgMjUuMTE1IDQzLjU0MS0yNS4xMjFWMjUuNDczem0yLjQzOCAxMS44NTNsMzIuMTAzIDE4Ljc4MlY2OS43N0w0My43MzkgODkuNzA1IDkgNjkuNzYyVjMwLjY0MWwzMi4xOS0xOC43MzZ2MTQuMTU0TDI0LjUwMyAzNi4xNTNsMTkuMTcyIDExLjUwMiAxOC44ODYtMTEuNTU0LTE2LjM3Mi0xMC4wMjR6Ii8+JiN4YTsJPHBhdGggY2xhc3M9InN0MSIgZD0iTTIyLjAyNSA0MC40OTZsLjE2NiAxOS4xNDMtMTMuMjQ3IDcuMzN2Mi43NDJsMi42MzcgMS41MTQgMTIuNjQ4LTYuOTk5IDE2Ljk2MSAxMC42MDJWNTEuOTkzeiIvPiYjeGE7CTxwYXRoIGNsYXNzPSJzdDIiIGQ9Ik02NS4zNDQgNDAuMjZMNDYuMTg5IDUxLjk3OXYyMi44NDdsMTYuODk5LTEwLjU3NiAxMi41MzkgNi45NzQgMi42MDktMS41MDV2LTIuNzY1bC0xMi43ODQtNy4xMTJ6Ii8+JiN4YTs8L3N2Zz4=;" vertex="1" parent="1">
          <mxGeometry x="122" y="300" width="48" height="56.47" as="geometry" />
        </mxCell>
        <mxCell id="sWI6t_ZAFfcBNHLe3j9c-32" value="on-prem-demo" style="sketch=0;html=1;verticalAlign=top;labelPosition=center;verticalLabelPosition=bottom;align=center;spacingTop=-6;fontSize=11;fontStyle=1;fontColor=#999999;shape=image;aspect=fixed;imageAspect=0;image=data:image/svg+xml,PHN2ZyB4bWxucz0iaHR0cDovL3d3dy53My5vcmcvMjAwMC9zdmciIHhtbG5zOnY9Imh0dHBzOi8vdmVjdGEuaW8vbmFubyIgd2lkdGg9IjcwMi44NDYzMTM0NzY1NjI1IiBoZWlnaHQ9IjY4MS45NjcxMDIwNTA3ODEyIiB2aWV3Qm94PSIxMC4wMDEwMjYxNTM1NjQ0NTMgMTAuMDAwOTMzNjQ3MTU1NzYyIDcwMi44NDYzMTM0NzY1NjI1IDY4MS45NjcxMDIwNTA3ODEyIj4mI3hhOwk8c3R5bGUgdHlwZT0idGV4dC9jc3MiPiYjeGE7CS5zdDB7ZmlsbDojMzI2Y2U1O30mI3hhOwkuc3Qxe2ZpbGw6I2ZmZjt9JiN4YTsJPC9zdHlsZT4mI3hhOwk8cGF0aCBjbGFzcz0ic3QwIiBkPSJNMzU4Ljk4NyAxMC4wNmMtNi4yMTMuMzEzLTEyLjMwMSAxLjg1NC0xNy45MDYgNC41MzFMOTYuNzM3IDEzMS4zNDJjLTEyLjgxMSA2LjExOC0yMi4xMTYgMTcuNjg5LTI1LjI4MSAzMS40MzhsLTYwLjI4MSAyNjIuMjVjLTIuODEyIDEyLjIwNy0uNTI0IDI1LjAyNCA2LjM0NCAzNS41MzFhNDYuMzUgNDYuMzUgMCAwIDAgMi42NTYgMy42ODhsMTY5LjEyNSAyMTAuMjgxYzguODY4IDExLjAyMiAyMi4zMTMgMTcuNDQgMzYuNTMxIDE3LjQzOGwyNzEuMjE5LS4wNjJjMTQuMjEyLjAxIDI3LjY1Ny02LjM5NiAzNi41MzEtMTcuNDA2bDE2OS4wNjMtMjEwLjMxM2M4Ljg3My0xMS4wMjggMTIuMTk3LTI1LjQ2NCA5LjAzMS0zOS4yMTlsLTYwLjM3NS0yNjIuMjVjLTMuMTY1LTEzLjc0OC0xMi40Ny0yNS4zMTktMjUuMjgxLTMxLjQzN0wzODEuNjQzIDE0LjU5MmMtNy4wNS0zLjM2OC0xNC44NDEtNC45MjYtMjIuNjU2LTQuNTMxeiIvPiYjeGE7CTxwYXRoIGNsYXNzPSJzdDEgc3QyIiBkPSJNMzYxLjQwOCA5OS4zMDhjLTguMDc3LjAwMS0xNC42MjYgNy4yNzYtMTQuNjI1IDE2LjI1IDAgLjEzOC4wMjguMjY5LjAzMS40MDYtLjAxMiAxLjIxOS0uMDcxIDIuNjg4LS4wMzEgMy43NS4xOTMgNS4xNzYgMS4zMjEgOS4xMzcgMiAxMy45MDYgMS4yMyAxMC4yMDcgMi4yNjEgMTguNjY3IDEuNjI1IDI2LjUzMS0uNjE5IDIuOTY1LTIuODAzIDUuNjc3LTQuNzUgNy41NjNsLS4zNDQgNi4xODhjLTguNzc3LjcyNy0xNy42MTIgMi4wNTktMjYuNDM3IDQuMDYzLTM3Ljk3NSA4LjYyMi03MC42NyAyOC4xODMtOTUuNTYyIDU0LjU5NC0xLjYxNS0xLjEwMi00LjQ0MS0zLjEyOS01LjI4MS0zLjc1LTIuNjExLjM1My01LjI1IDEuMTU4LTguNjg3LS44NDQtNi41NDUtNC40MDYtMTIuNTA2LTEwLjQ4Ny0xOS43MTktMTcuODEyLTMuMzA1LTMuNTA0LTUuNjk4LTYuODQxLTkuNjI1LTEwLjIxOS0uODkyLS43NjctMi4yNTMtMS44MDUtMy4yNS0yLjU5NC0zLjA3LTIuNDQ4LTYuNjkxLTMuNzI0LTEwLjE4Ny0zLjg0NC00LjQ5Ni0uMTU0LTguODI0IDEuNjA0LTExLjY1NiA1LjE1Ni01LjAzNSA2LjMxNS0zLjQyMyAxNS45NjggMy41OTQgMjEuNTYzLjA3MS4wNTcuMTQ3LjEwMS4yMTkuMTU2Ljk2NC43ODIgMi4xNDUgMS43ODMgMy4wMzEgMi40MzggNC4xNjcgMy4wNzcgNy45NzMgNC42NTEgMTIuMTI1IDcuMDk0IDguNzQ3IDUuNDAyIDE1Ljk5OCA5Ljg4MSAyMS43NSAxNS4yODEgMi4yNDYgMi4zOTQgMi42MzkgNi42MTMgMi45MzggOC40MzhsNC42ODggNC4xODhjLTI1LjA5MyAzNy43NjQtMzYuNzA3IDg0LjQwOS0yOS44NDQgMTMxLjkzOGwtNi4xMjUgMS43ODFjLTEuNjE0IDIuMDg1LTMuODk1IDUuMzY1LTYuMjgxIDYuMzQ0LTcuNTI1IDIuMzctMTUuOTk0IDMuMjQxLTI2LjIxOSA0LjMxMy00LjguMzk5LTguOTQyLjE2MS0xNC4wMzEgMS4xMjUtMS4xMi4yMTItMi42ODEuNjE5LTMuOTA2LjkwNi0uMDQzLjAwOS0uMDgyLjAyMi0uMTI1LjAzMS0uMDY3LjAxNS0uMTU1LjA0OC0uMjE5LjA2My04LjYyIDIuMDgzLTE0LjE1OCAxMC4wMDYtMTIuMzc1IDE3LjgxM3MxMC4yMDMgMTIuNTU3IDE4Ljg3NSAxMC42ODhjLjA2My0uMDE0LjE1NC0uMDE3LjIxOS0uMDMxLjA5OC0uMDIyLjE4NC0uMDcuMjgxLS4wOTQgMS4yMDktLjI2NSAyLjcyNC0uNTYxIDMuNzgxLS44NDQgNS4wMDMtMS4zNCA4LjYyNy0zLjMwOCAxMy4xMjUtNS4wMzEgOS42NzctMy40NzEgMTcuNjkyLTYuMzcgMjUuNS03LjUgMy4yNjEtLjI1NSA2LjY5NyAyLjAxMiA4LjQwNiAyLjk2OWw2LjM3NS0xLjA5NGMxNC42NyA0NS40ODMgNDUuNDE0IDgyLjI0NSA4NC4zNDQgMTA1LjMxMmwtMi42NTYgNi4zNzVjLjk1NyAyLjQ3NSAyLjAxMyA1LjgyNSAxLjMgOC4yNjktMi44MzkgNy4zNjEtNy43MDEgMTUuMTMxLTEzLjIzOCAyMy43OTMtMi42ODEgNC4wMDItNS40MjUgNy4xMDgtNy44NDQgMTEuNjg4LS41NzkgMS4wOTYtMS4zMTYgMi43NzktMS44NzUgMy45MzgtMy43NTkgOC4wNDItMS4wMDIgMTcuMzA1IDYuMjE5IDIwLjc4MSA3LjI2NiAzLjQ5OCAxNi4yODQtLjE5MSAyMC4xODctOC4yNS4wMDYtLjAxMS4wMjYtLjAyLjAzMS0uMDMxcy0uMDA0LS4wMjMgMC0uMDMxYy41NTYtMS4xNDMgMS4zNDQtMi42NDQgMS44MTMtMy43MTkgMi4wNzItNC43NDcgMi43NjItOC44MTUgNC4yMTktMTMuNDA2IDMuODctOS43MiA1Ljk5Ni0xOS45MTkgMTEuMzIzLTI2LjI3NCAxLjQ1OS0xLjc0IDMuODM3LTIuNDA5IDYuMzAyLTMuMDdsMy4zMTMtNmMzMy45MzggMTMuMDI3IDcxLjkyNyAxNi41MjIgMTA5Ljg3NSA3LjkwNmExODkuNzcgMTg5Ljc3IDAgMCAwIDI1LjA5NC03LjU2MmwzLjEyNSA1LjYyNWMyLjUwNi44MTUgNS4yNCAxLjIzNiA3LjQ2OSA0LjUzMSAzLjk4NSA2LjgwOSA2LjcxMSAxNC44NjQgMTAuMDMxIDI0LjU5NCAxLjQ1NyA0LjU5MSAyLjE3OCA4LjY1OSA0LjI1IDEzLjQwNi40NzIgMS4wODIgMS4yNTYgMi42MDUgMS44MTMgMy43NSAzLjg5NSA4LjA4NSAxMi45NDIgMTEuNzg3IDIwLjIxOSA4LjI4MSA3LjIxOS0zLjQ3OCA5Ljk4LTEyLjc0IDYuMjE5LTIwLjc4MWwtMS45MDYtMy45MzdjLTIuNDE5LTQuNTgtNS4xNjMtNy42NTQtNy44NDQtMTEuNjU2LTUuNTM3LTguNjYyLTEwLjEzLTE1Ljg1OC0xMi45NjktMjMuMjE5LTEuMTg3LTMuNzk3LjItNi4xNTggMS4xMjUtOC42MjUtLjU1NC0uNjM1LTEuNzM5LTQuMjItMi40MzctNS45MDYgNDAuNDU3LTIzLjg4OCA3MC4yOTktNjIuMDIxIDg0LjMxMy0xMDYuMDYyIDEuODkyLjI5NyA1LjE4Mi44NzkgNi4yNSAxLjA5NCAyLjItMS40NTEgNC4yMjItMy4zNDQgOC4xODgtMy4wMzEgNy44MDggMS4xMjkgMTUuODIzIDQuMDMgMjUuNSA3LjUgNC40OTggMS43MjMgOC4xMjIgMy43MjMgMTMuMTI1IDUuMDYzIDEuMDU3LjI4MyAyLjU3Mi41NDcgMy43ODEuODEzLjA5Ny4wMjQuMTgzLjA3MS4yODEuMDk0LjA2NS4wMTUuMTU2LjAxNy4yMTkuMDMxIDguNjcyIDEuODY3IDE3LjA5NC0yLjg3OSAxOC44NzUtMTAuNjg3cy0zLjc1NC0xNS43MzItMTIuMzc1LTE3LjgxMmMtMS4yNTQtLjI4NS0zLjAzMi0uNzY5LTQuMjUtMS01LjA4OS0uOTY0LTkuMjMxLS43MjYtMTQuMDMxLTEuMTI1LTEwLjIyNS0xLjA3MS0xOC42OTMtMS45NDMtMjYuMjE5LTQuMzEyLTMuMDY4LTEuMTktNS4yNTEtNC44NDEtNi4zMTMtNi4zNDRsLTUuOTA2LTEuNzE5YzMuMDYyLTIyLjE1NCAyLjIzNy00NS4yMTEtMy4wNjItNjguMjgxLTUuMzQ4LTIzLjI4NS0xNC44LTQ0LjU4MS0yNy40MDYtNjMuMzQ0bDUuMTg4LTQuNjU2Yy4yMzctMi42MjQuMDMzLTUuMzc2IDIuNzUtOC4yODEgNS43NTEtNS40MDEgMTMuMDAzLTkuODc5IDIxLjc1LTE1LjI4MSA0LjE1Mi0yLjQ0MyA3Ljk5LTQuMDE3IDEyLjE1Ni03LjA5NC45NDItLjY5NiAyLjIyOS0xLjc5OCAzLjIxOS0yLjU5NCA3LjAxNS01LjU5NiA4LjYzMS0xNS4yNDggMy41OTQtMjEuNTYycy0xNC43OTctNi45MDktMjEuODEyLTEuMzEyYy0uOTk5Ljc5MS0yLjM1NCAxLjgyMy0zLjI1IDIuNTk0LTMuOTI3IDMuMzc4LTYuMzUxIDYuNzE0LTkuNjU2IDEwLjIxOS03LjIxMiA3LjMyNi0xMy4xNzQgMTMuNDM4LTE5LjcxOSAxNy44NDQtMi44MzYgMS42NTEtNi45OSAxLjA4LTguODc1Ljk2OWwtNS41NjIgMy45NjljLTMxLjcxOS0zMy4yNjEtNzQuOTA1LTU0LjUyNS0xMjEuNDA2LTU4LjY1NmwtLjM0NC02LjUzMWMtMS45MDQtMS44MjItNC4yMDMtMy4zNzctNC43ODEtNy4zMTItLjYzNi03Ljg2NC40MjYtMTYuMzI1IDEuNjU2LTI2LjUzMS42NzktNC43NjkgMS44MDctOC43MyAyLTEzLjkwNi4wNDQtMS4xNzctLjAyNi0yLjg4NC0uMDMxLTQuMTU2LS4wMDEtOC45NzQtNi41NDgtMTYuMjUxLTE0LjYyNS0xNi4yNXptLTE4LjMxMiAxMTMuNDM4bC00LjM0NCA3Ni43MTktLjMxMi4xNTZjLS4yOTEgNi44NjMtNS45NCAxMi4zNDQtMTIuODc1IDEyLjM0NGExMi44MiAxMi44MiAwIDAgMS03LjU5NC0yLjQ2OWwtLjEyNS4wNjMtNjIuOTA2LTQ0LjU5NGMxOS4zMzQtMTkuMDExIDQ0LjA2My0zMy4wNiA3Mi41NjItMzkuNTMxIDUuMjA2LTEuMTgyIDEwLjQxLTIuMDU5IDE1LjU5NC0yLjY4N3ptMzYuNjU2IDBjMzMuMjczIDQuMDkyIDY0LjA0NSAxOS4xNTkgODcuNjI1IDQyLjI1bC02Mi41IDQ0LjMxMy0uMjE5LS4wOTRhMTIuOTEgMTIuOTEgMCAwIDEtMTcuNjg3LTIuMzc1Yy0xLjc3MS0yLjIyMS0yLjcwMS00LjgzMi0yLjgxMi03LjQ2OWwtLjA2Mi0uMDMxek0yMzIuMTI2IDI4My42Mmw1Ny40MzcgNTEuMzc1LS4wNjIuMzEzYTEyLjg4IDEyLjg4IDAgMCAxIDEuNjI1IDE3Ljc1IDEyLjg5IDEyLjg5IDAgMCAxLTYuNjg3IDQuNDA2bC0uMDYyLjI1LTczLjYyNSAyMS4yNWMtMy43NDctMzQuMjY1IDQuMzI5LTY3LjU3NCAyMS4zNzUtOTUuMzQ0em0yNTguMTU2LjAzMWM4LjUzNCAxMy44MzMgMTQuOTk3IDI5LjI4MiAxOC44NDQgNDYuMDMxIDMuODAxIDE2LjU0OCA0Ljc1NSAzMy4wNjcgMy4xODggNDkuMDMxbC03NC0yMS4zMTItLjA2Mi0uMzEyYy02LjYyNy0xLjgxMS0xMC42OTktOC41NTItOS4xNTYtMTUuMzEyLjYzMi0yLjc3IDIuMTAyLTUuMTEzIDQuMDk0LTYuODQ0bC0uMDMxLS4xNTYgNTcuMTI1LTUxLjEyNXptLTE0MC42NTYgNTUuMzEzaDIzLjUzMWwxNC42MjUgMTguMjgxLTUuMjUgMjIuODEzLTIxLjEyNSAxMC4xNTYtMjEuMTg3LTEwLjE4Ny01LjI1LTIyLjgxMnptNzUuNDM4IDYyLjU2M2ExMi44MyAxMi44MyAwIDAgMSAyLjk2OS4yMTlsLjEyNS0uMTU2IDc2LjE1NiAxMi44NzVjLTExLjE0NiAzMS4zMTMtMzIuNDczIDU4LjQ0LTYwLjk2OSA3Ni41OTRsLTI5LjU2Mi03MS40MDYuMDk0LS4xMjVjLTIuNzE2LTYuMzEuMDAyLTEzLjcxIDYuMjUtMTYuNzE5IDEuNi0uNzcgMy4yNzEtMS4xOTcgNC45MzgtMS4yODF6bS0xMjcuOTA2LjMxM2ExMi45IDEyLjkgMCAwIDEgMTIuMzc1IDEwLjAzMSAxMi43NyAxMi43NyAwIDAgMS0uNzE5IDcuOTM4bC4yMTkuMjgxLTI5LjI1IDcwLjY4OGMtMjcuMzQ3LTE3LjU0OS00OS4xMjktNDMuODI0LTYwLjc4MS03Ni4wNjJsNzUuNS0xMi44MTIuMTI1LjE1NmMuODQ1LS4xNTUgMS43MDEtLjIzIDIuNTMxLS4yMTl6bTYzLjc4MSAzMC45NjljMi4wMjQtLjA3NCA0LjA3OS4zNDEgNi4wMzEgMS4yODEgMi41NiAxLjIzMyA0LjUzNyAzLjE3MyA1Ljc4MSA1LjVoLjI4MWwzNy4yMTkgNjcuMjVjLTQuODMgMS42MTktOS43OTYgMy4wMDMtMTQuODc1IDQuMTU2LTI4LjQ2NSA2LjQ2My01Ni44MzkgNC41MDUtODIuNTMxLTQuMjVsMzcuMTI1LTY3LjEyNWguMDYzYTEyLjkxIDEyLjkxIDAgMCAxIDEwLjkwNi02LjgxMnoiIHN0cm9rZT0ibm9uZSIgc3Ryb2tlLXdpZHRoPSIuMjUiLz4mI3hhOzwvc3ZnPg==;" vertex="1" parent="1">
          <mxGeometry x="700" y="308.24" width="43.85" height="41.76" as="geometry" />
        </mxCell>
        <mxCell id="sWI6t_ZAFfcBNHLe3j9c-33" value="Anthos Service&#xa;Mesh" style="sketch=0;html=1;verticalAlign=top;labelPosition=center;verticalLabelPosition=bottom;align=center;spacingTop=-6;fontSize=11;fontStyle=1;fontColor=#999999;shape=image;aspect=fixed;imageAspect=0;image=data:image/svg+xml,PHN2ZyB4bWxucz0iaHR0cDovL3d3dy53My5vcmcvMjAwMC9zdmciIGlkPSJzdmc4OTYzNCIgdmVyc2lvbj0iMS4xIiB2aWV3Qm94PSIwIDAgMTI4Ljk4NjQzIDEzMi4yMDY5MSIgaGVpZ2h0PSIxMzIuMjA2OTFtbSIgd2lkdGg9IjEyOC45ODY0M21tIj4mI3hhOyAgJiN4YTsgIDxkZWZzIGlkPSJkZWZzODk2MzEiLz4mI3hhOyAgPGcgdHJhbnNmb3JtPSJ0cmFuc2xhdGUoLTQyLjM0MzE1MSwtODAuNzIwMTM1KSIgaWQ9ImxheWVyMSI+JiN4YTsgICAgPHBhdGggdHJhbnNmb3JtPSJzY2FsZSgwLjI2NDU4MzMzKSIgZD0ibSAzMTAuNzI0NjEsMzA1LjA4Mzk4IGEgNDMuMTAyNzA0LDQzLjEwMjcwNCAwIDAgMCAtNDMuMTAzNTIsNDMuMTAxNTcgNDMuMTAyNzA0LDQzLjEwMjcwNCAwIDAgMCA0My4xMDM1Miw0My4xMDM1MSA0My4xMDI3MDQsNDMuMTAyNzA0IDAgMCAwIDMuNzM0MzcsLTAuMTY2MDEgbCA1My4yNDAyNCw1NC43NzkyOSAtNzEuNTQ0OTIsNzMuNTA5NzcgLTQ5LjcyNjU3LC01MS41OTc2NiBhIDQzLjEwMjcwNCw0My4xMDI3MDQgMCAwIDAgMC43NjU2MywtOC4wNzIyNiA0My4xMDI3MDQsNDMuMTAyNzA0IDAgMCAwIC00My4xMDM1MiwtNDMuMTAxNTcgNDMuMTAyNzA0LDQzLjEwMjcwNCAwIDAgMCAtNDMuMTAxNTYsNDMuMTAxNTcgNDMuMTAyNzA0LDQzLjEwMjcwNCAwIDAgMCA0My4xMDE1Niw0My4xMDM1MSA0My4xMDI3MDQsNDMuMTAyNzA0IDAgMCAwIDcuMjY1NjMsLTAuNjIxMDkgbCAxNTYuNDc2NTYsMTYyLjM1OTM3IC01Mi44NTc0Miw1NC4xMTMyOSBhIDQzLjEwMjcwNCw0My4xMDI3MDQgMCAwIDAgLTMuOTA2MjUsLTAuMTc5NjkgNDMuMTAyNzA0LDQzLjEwMjcwNCAwIDAgMCAtNDMuMTAxNTYsNDMuMTAxNTYgNDMuMTAyNzA0LDQzLjEwMjcwNCAwIDAgMCA0My4xMDE1Niw0My4xMDM1MiA0My4xMDI3MDQsNDMuMTAyNzA0IDAgMCAwIDQzLjEwMzUyLC00My4xMDM1MiA0My4xMDI3MDQsNDMuMTAyNzA0IDAgMCAwIC0xLjQ4NjMzLC0xMS4yMTA5NCBMIDQ4Ni4xMTkxNCw2MTMuODEyNSA0NTAuOTY2OCw1NzkuNDc4NTIgNDAyLjE3OTY5LDYyOS40MTYwMiAzMzAuMjczNDQsNTU0LjgwODU5IDQ4OS42ODc1LDM5MS4wMzEyNSBhIDQzLjEwMjcwNCw0My4xMDI3MDQgMCAwIDAgNy4wNjgzNiwwLjYwMzUyIDQzLjEwMjcwNCw0My4xMDI3MDQgMCAwIDAgNDMuMTAzNTIsLTQzLjEwMTU3IDQzLjEwMjcwNCw0My4xMDI3MDQgMCAwIDAgLTQzLjEwMzUyLC00My4xMDM1MSA0My4xMDI3MDQsNDMuMTAyNzA0IDAgMCAwIC00My4xMDE1Niw0My4xMDM1MSA0My4xMDI3MDQsNDMuMTAyNzA0IDAgMCAwIDAuODIyMjYsOC4yMjQ2MSBsIC01Mi40ODgyOCw1My45MjU3OCAtNDkuNjg5NDUsLTUxLjEzMDg2IGEgNDMuMTAyNzA0LDQzLjEwMjcwNCAwIDAgMCAxLjUyOTI5LC0xMS4zNjcxOCA0My4xMDI3MDQsNDMuMTAyNzA0IDAgMCAwIC00My4xMDM1MSwtNDMuMTAxNTcgeiBtIDI5My43MTg3NSwxMTEuNzc5MyBhIDQzLjEwMjcwNCw0My4xMDI3MDQgMCAwIDAgLTQzLjEwMzUyLDQzLjEwMTU2IDQzLjEwMjcwNCw0My4xMDI3MDQgMCAwIDAgMC4zMjgxMyw1LjA1ODYgbCAtNTMuMDMzMiw1NC44OTA2MiAtNDkuNDg4MjksLTUwLjIxMDk0IC0zNC45OTgwNCwzNC40ODgyOSAxMzcuMzM3ODksMTM5LjM0NzY1IEEgNDMuMTAyNzA0LDQzLjEwMjcwNCAwIDAgMCA1NjAuOTk2MDksNjUwIDQzLjEwMjcwNCw0My4xMDI3MDQgMCAwIDAgNjA0LjA5OTYxLDY5My4xMDM1MiA0My4xMDI3MDQsNDMuMTAyNzA0IDAgMCAwIDY0Ny4yMDMxMiw2NTAgYSA0My4xMDI3MDQsNDMuMTAyNzA0IDAgMCAwIC00My4xMDM1MSwtNDMuMTAxNTYgNDMuMTAyNzA0LDQzLjEwMjcwNCAwIDAgMCAtOC44MTI1LDAuOTMzNTkgbCAtNTIuMTUwMzksLTUyLjkxNDA2IDUxLjI1NTg2LC01My4wNTQ2OSBhIDQzLjEwMjcwNCw0My4xMDI3MDQgMCAwIDAgMTAuMDUwNzgsMS4yMDUwOCA0My4xMDI3MDQsNDMuMTAyNzA0IDAgMCAwIDQzLjEwMTU2LC00My4xMDM1MiA0My4xMDI3MDQsNDMuMTAyNzA0IDAgMCAwIC00My4xMDE1NiwtNDMuMTAxNTYgeiBtIC0zNjYuMTc3NzQsMTYxLjU5NTcgLTI3LjQwODIsMjkuMzI4MTMgYSA0My4xMDI3MDQsNDMuMTAyNzA0IDAgMCAwIC03LjcxODc1LC0wLjY5NzI3IDQzLjEwMjcwNCw0My4xMDI3MDQgMCAwIDAgLTQzLjEwMTU2LDQzLjEwMzUyIDQzLjEwMjcwNCw0My4xMDI3MDQgMCAwIDAgNDMuMTAxNTYsNDMuMTAxNTYgNDMuMTAyNzA0LDQzLjEwMjcwNCAwIDAgMCA0My4xMDM1MiwtNDMuMTAxNTYgNDMuMTAyNzA0LDQzLjEwMjcwNCAwIDAgMCAtMC42NzM4MywtNy41ODM5OCBsIDI4LjU5NTcsLTMwLjYwNTQ3IHogbSAyMjEuODEwNTUsMTA5LjQ2NjggLTM1LjQzOTQ1LDM0LjAyMzQ0IDI5LjAyNTM5LDMwLjIzNjMzIGEgNDMuMTAyNzA0LDQzLjEwMjcwNCAwIDAgMCAtMS4wNTg1OSw5LjQ3NDYxIDQzLjEwMjcwNCw0My4xMDI3MDQgMCAwIDAgNDMuMTAxNTYsNDMuMTAzNTEgNDMuMTAyNzA0LDQzLjEwMjcwNCAwIDAgMCA0My4xMDM1MSwtNDMuMTAzNTEgNDMuMTAyNzA0LDQzLjEwMjcwNCAwIDAgMCAtNDMuMTAzNTEsLTQzLjEwMTU3IDQzLjEwMjcwNCw0My4xMDI3MDQgMCAwIDAgLTUuODI2MTcsMC40MTQwNyB6IiBzdHlsZT0iY29sb3I6IzAwMDAwMDtvcGFjaXR5OjE7ZmlsbDojNDI4NWY0O2ZpbGwtb3BhY2l0eToxO3N0cm9rZS13aWR0aDo0NS4zNTQzO3N0cm9rZS1saW5lam9pbjpyb3VuZDstaW5rc2NhcGUtc3Ryb2tlOm5vbmUiIGlkPSJwYXRoODk3NTciLz4mI3hhOyAgPC9nPiYjeGE7PC9zdmc+;" vertex="1" parent="1">
          <mxGeometry x="409" y="306.24" width="41" height="42" as="geometry" />
        </mxCell>
        <mxCell id="sWI6t_ZAFfcBNHLe3j9c-34" value="GCP VPN" style="sketch=0;html=1;verticalAlign=top;labelPosition=center;verticalLabelPosition=bottom;align=center;spacingTop=-6;fontSize=11;fontStyle=1;fontColor=#999999;shape=image;aspect=fixed;imageAspect=0;image=data:image/svg+xml,PHN2ZyB4bWxucz0iaHR0cDovL3d3dy53My5vcmcvMjAwMC9zdmciIHhtbG5zOnY9Imh0dHBzOi8vdmVjdGEuaW8vbmFubyIgd2lkdGg9IjE3Ljk1MDAwMDc2MjkzOTQ1MyIgaGVpZ2h0PSIyMCIgdmlld0JveD0iMCAwIDE3Ljk1MDAwMDc2MjkzOTQ1MyAyMCI+JiN4YTsJPHN0eWxlIHR5cGU9InRleHQvY3NzIj4mI3hhOwkuc3Qwe2ZpbGw6IzQyODVmNDt9JiN4YTsJLnN0MXtmaWxsOiM2NjlkZjY7fSYjeGE7CTwvc3R5bGU+JiN4YTsJPGcgY2xhc3M9InN0MSI+JiN4YTsJCTxwYXRoIGQ9Ik0xMS43IDkuMjhoNC4xOHYxLjM4SDExLjd6Ii8+JiN4YTsJCTxwYXRoIGQ9Ik0xNC45MiA0LjEyaDEuMzh2MTEuNzFoLTEuMzh6Ii8+JiN4YTsJPC9nPiYjeGE7CTxnIGNsYXNzPSJzdDAiPiYjeGE7CQk8cmVjdCB4PSIxMy4yNyIgeT0iMTUuMzIiIHdpZHRoPSI0LjY4IiBoZWlnaHQ9IjQuNjgiIHJ4PSIuMjgiLz4mI3hhOwkJPHJlY3QgeD0iMTMuMjciIHdpZHRoPSI0LjY4IiBoZWlnaHQ9IjQuNjgiIHJ4PSIuMjgiLz4mI3hhOwk8L2c+JiN4YTsJPHBhdGggY2xhc3M9InN0MSIgZD0iTTMuOTUgOS4yOGg0LjI4djEuMzhIMy45NXoiLz4mI3hhOwk8ZyBjbGFzcz0ic3QwIj4mI3hhOwkJPHJlY3QgeT0iNy42MyIgd2lkdGg9IjQuNjgiIGhlaWdodD0iNC42OCIgcng9Ii4yOCIvPiYjeGE7CQk8cGF0aCBkPSJNOS45NyAxMi4xN2EyLjIgMi4yIDAgMSAxIDAtNC40IDIuMiAyLjIgMCAwIDEgMi4yIDIuMiAyLjE5IDIuMTkgMCAwIDEtMi4yIDIuMnptMC0zLjU3YTEuMzggMS4zOCAwIDAgMC0xLjA1IDIuMzNBMS4zOCAxLjM4IDAgMCAwIDExLjMgMTBhMS4zNyAxLjM3IDAgMCAwLTEuMzMtMS40eiIvPiYjeGE7CTwvZz4mI3hhOzwvc3ZnPg==;" vertex="1" parent="1">
          <mxGeometry x="340" y="80" width="42" height="42" as="geometry" />
        </mxCell>
        <mxCell id="sWI6t_ZAFfcBNHLe3j9c-35" value="on-prem VPN" style="sketch=0;html=1;verticalAlign=top;labelPosition=center;verticalLabelPosition=bottom;align=center;spacingTop=-6;fontSize=11;fontStyle=1;fontColor=#999999;shape=image;aspect=fixed;imageAspect=0;image=data:image/svg+xml,PHN2ZyB4bWxucz0iaHR0cDovL3d3dy53My5vcmcvMjAwMC9zdmciIHhtbG5zOnY9Imh0dHBzOi8vdmVjdGEuaW8vbmFubyIgd2lkdGg9IjE3Ljk1MDAwMDc2MjkzOTQ1MyIgaGVpZ2h0PSIyMCIgdmlld0JveD0iMCAwIDE3Ljk1MDAwMDc2MjkzOTQ1MyAyMCI+JiN4YTsJPHN0eWxlIHR5cGU9InRleHQvY3NzIj4mI3hhOwkuc3Qwe2ZpbGw6IzQyODVmNDt9JiN4YTsJLnN0MXtmaWxsOiM2NjlkZjY7fSYjeGE7CTwvc3R5bGU+JiN4YTsJPGcgY2xhc3M9InN0MSI+JiN4YTsJCTxwYXRoIGQ9Ik0xMS43IDkuMjhoNC4xOHYxLjM4SDExLjd6Ii8+JiN4YTsJCTxwYXRoIGQ9Ik0xNC45MiA0LjEyaDEuMzh2MTEuNzFoLTEuMzh6Ii8+JiN4YTsJPC9nPiYjeGE7CTxnIGNsYXNzPSJzdDAiPiYjeGE7CQk8cmVjdCB4PSIxMy4yNyIgeT0iMTUuMzIiIHdpZHRoPSI0LjY4IiBoZWlnaHQ9IjQuNjgiIHJ4PSIuMjgiLz4mI3hhOwkJPHJlY3QgeD0iMTMuMjciIHdpZHRoPSI0LjY4IiBoZWlnaHQ9IjQuNjgiIHJ4PSIuMjgiLz4mI3hhOwk8L2c+JiN4YTsJPHBhdGggY2xhc3M9InN0MSIgZD0iTTMuOTUgOS4yOGg0LjI4djEuMzhIMy45NXoiLz4mI3hhOwk8ZyBjbGFzcz0ic3QwIj4mI3hhOwkJPHJlY3QgeT0iNy42MyIgd2lkdGg9IjQuNjgiIGhlaWdodD0iNC42OCIgcng9Ii4yOCIvPiYjeGE7CQk8cGF0aCBkPSJNOS45NyAxMi4xN2EyLjIgMi4yIDAgMSAxIDAtNC40IDIuMiAyLjIgMCAwIDEgMi4yIDIuMiAyLjE5IDIuMTkgMCAwIDEtMi4yIDIuMnptMC0zLjU3YTEuMzggMS4zOCAwIDAgMC0xLjA1IDIuMzNBMS4zOCAxLjM4IDAgMCAwIDExLjMgMTBhMS4zNyAxLjM3IDAgMCAwLTEuMzMtMS40eiIvPiYjeGE7CTwvZz4mI3hhOzwvc3ZnPg==;" vertex="1" parent="1">
          <mxGeometry x="480" y="80" width="42" height="42" as="geometry" />
        </mxCell>
        <mxCell id="sWI6t_ZAFfcBNHLe3j9c-36" value="" style="edgeStyle=orthogonalEdgeStyle;fontSize=12;html=1;endArrow=blockThin;endFill=1;rounded=0;strokeWidth=2;endSize=4;startSize=4;dashed=0;strokeColor=#4284F3;exitX=1;exitY=0.25;exitDx=0;exitDy=0;entryX=0;entryY=0.25;entryDx=0;entryDy=0;startArrow=classic;startFill=1;" edge="1" parent="1" source="sWI6t_ZAFfcBNHLe3j9c-34" target="sWI6t_ZAFfcBNHLe3j9c-35">
          <mxGeometry width="100" relative="1" as="geometry">
            <mxPoint x="440" y="-160" as="sourcePoint" />
            <mxPoint x="540" y="-160" as="targetPoint" />
          </mxGeometry>
        </mxCell>
        <mxCell id="sWI6t_ZAFfcBNHLe3j9c-38" value="" style="edgeStyle=orthogonalEdgeStyle;fontSize=12;html=1;endArrow=blockThin;endFill=1;rounded=0;strokeWidth=2;endSize=4;startSize=4;dashed=0;strokeColor=#4284F3;exitX=1;exitY=0.25;exitDx=0;exitDy=0;entryX=0;entryY=0.25;entryDx=0;entryDy=0;startArrow=classic;startFill=1;" edge="1" parent="1">
          <mxGeometry width="100" relative="1" as="geometry">
            <mxPoint x="383" y="111" as="sourcePoint" />
            <mxPoint x="481" y="111" as="targetPoint" />
          </mxGeometry>
        </mxCell>
      </root>
    </mxGraphModel>
  </diagram>
</mxfile>
